:SAMPLES-PER-SECOND 30
:FULLY-SPECIFIED
:DEGREES
630
root  3.67134 41.0445 -1.65394 178.516 -85.9071 -178.155
RightUpLeg  -0.470115 -7.72201 -5.91325
RightLeg  1.35081 -2.31107 3.20948
RightFoot  0.0799162 -0.168096 1.75507
RightToes  -4.65663e-010 0 -3.6325e-017
Spine  -7.39484 0.855383 3.66645
Spine1  7.49813 1.42422 -3.7039
HEad  2.74449 8.89521 0.119822
LeftShoulder1  3.42924 -8.93259 -21.1705
LeftArm  -3.87689 -17.8892 7.61796
LeftForeArm  170.243 -39.8959 -171.418
LeftHand  -0.244104 0.0205437 5.32207
RightShoulder  2.35682 7.4273 14.7498
RightArm  4.12277 27.4283 3.26008
RightForeArm  156.962 45.8102 168.677
RightHand  -0.0749124 -10.4275 0.391655
LeftUpLeg  0.982861 6.29426 4.96634
LeftLeg  0.929175 11.8514 -4.0673
LeftFoot  -1.77484 0.0980039 -1.05288
LeftToes  4.18335e-011 1.59304e-011 3.38507e-012
631
root  3.68596 41.0445 -1.66866 178.102 -85.9215 -177.758
RightUpLeg  -0.461885 -7.69874 -5.86317
RightLeg  1.3352 -2.35916 3.21971
RightFoot  0.097859 -0.169879 1.77687
RightToes  -4.65663e-010 0 -3.6325e-017
Spine  -7.4178 0.838005 3.65595
Spine1  7.49665 1.41042 -3.71982
HEad  2.98096 8.99511 0.206657
LeftShoulder1  3.41822 -8.94986 -21.0356
LeftArm  -3.78073 -17.9882 7.41525
LeftForeArm  170.757 -40.0004 -171.418
LeftHand  -0.244104 0.0205437 5.32207
RightShoulder  2.35999 7.46227 14.7062
RightArm  3.90307 27.6208 3.28995
RightForeArm  157.478 46.0794 168.612
RightHand  -0.0968876 -10.449 0.870354
LeftUpLeg  0.935799 6.34142 5.03271
LeftLeg  1.0257 11.7866 -4.0572
LeftFoot  -1.80622 0.100586 -1.08303
LeftToes  4.18335e-011 1.59304e-011 3.38507e-012
632
root  3.69853 41.0445 -1.67925 177.921 -85.9371 -177.609
RightUpLeg  -0.429452 -7.70998 -5.85261
RightLeg  1.31291 -2.37055 3.24903
RightFoot  0.109516 -0.171522 1.79604
RightToes  -4.65663e-010 0 -3.6325e-017
Spine  -7.43581 0.820841 3.6693
Spine1  7.54096 1.39824 -3.74157
HEad  3.10202 9.00619 0.267509
LeftShoulder1  3.43661 -9.00797 -21.0566
LeftArm  -3.75965 -18.0858 7.40323
LeftForeArm  170.887 -40.0327 -171.417
LeftHand  -0.244104 0.0205437 5.32207
RightShoulder  2.36276 7.52108 14.6078
RightArm  3.77339 27.7154 3.31933
RightForeArm  157.613 46.2319 168.565
RightHand  -0.108003 -10.4286 1.11985
LeftUpLeg  0.92154 6.35657 5.06335
LeftLeg  1.08643 11.7517 -4.04137
LeftFoot  -1.81872 0.101408 -1.08582
LeftToes  4.18335e-011 1.59304e-011 3.38507e-012
633
root  3.70971 41.0445 -1.68708 177.914 -85.9281 -177.627
RightUpLeg  -0.413747 -7.73951 -5.86129
RightLeg  1.30912 -2.333 3.28685
RightFoot  0.112702 -0.170493 1.77337
RightToes  -4.65663e-010 0 -3.6325e-017
Spine  -7.47428 0.816272 3.67534
Spine1  7.64823 1.39526 -3.73713
HEad  3.0911 8.99341 0.246745
LeftShoulder1  3.45312 -9.02307 -21.1618
LeftArm  -3.83228 -18.2405 7.50331
LeftForeArm  170.762 -40.0009 -171.418
LeftHand  -0.244104 0.0205437 5.32207
RightShoulder  2.35851 7.54951 14.5051
RightArm  3.71434 27.7769 3.27125
RightForeArm  157.362 46.1623 168.574
RightHand  -0.110711 -10.6399 1.10953
LeftUpLeg  0.926203 6.34925 5.07024
LeftLeg  1.0957 11.764 -4.02493
LeftFoot  -1.81084 0.102171 -1.08769
LeftToes  4.18335e-011 1.59304e-011 3.38507e-012
634
root  3.72011 41.0445 -1.69323 178.038 -85.8986 -177.758
RightUpLeg  -0.435756 -7.7564 -5.86698
RightLeg  1.32967 -2.28503 3.30471
RightFoot  0.113562 -0.168598 1.73689
RightToes  -4.65663e-010 0 -3.6325e-017
Spine  -7.53685 0.820104 3.66115
Spine1  7.78724 1.39883 -3.71451
HEad  3.03147 8.99374 0.199229
LeftShoulder1  3.45309 -9.00182 -21.2112
LeftArm  -3.97201 -18.3767 7.58117
LeftForeArm  170.706 -39.9395 -171.433
LeftHand  -0.244104 0.0205437 5.32207
RightShoulder  2.33905 7.51012 14.3949
RightArm  3.69377 27.8835 3.2045
RightForeArm  156.946 45.9889 168.611
RightHand  -0.110183 -10.9819 0.994037
LeftUpLeg  0.923386 6.34055 5.06813
LeftLeg  1.07872 11.8019 -4.02193
LeftFoot  -1.79658 0.103459 -1.09773
LeftToes  4.18335e-011 1.59304e-011 3.38507e-012
635
root  3.72894 41.0444 -1.6976 178.27 -85.8828 -177.988
RightUpLeg  -0.466432 -7.7566 -5.87074
RightLeg  1.35218 -2.26952 3.29679
RightFoot  0.113228 -0.168857 1.7335
RightToes  -4.65663e-010 0 -3.6325e-017
Spine  -7.56467 0.811423 3.64922
Spine1  7.8604 1.39369 -3.71285
HEad  3.00085 8.97832 0.186156
LeftShoulder1  3.44441 -8.99336 -21.1571
LeftArm  -4.11272 -18.3947 7.60893
LeftForeArm  170.632 -39.9031 -171.439
LeftHand  -0.244104 0.0205437 5.32207
RightShoulder  2.311 7.43758 14.268
RightArm  3.71055 28.0194 3.20228
RightForeArm  156.641 45.8899 168.628
RightHand  -0.109513 -11.1428 0.932289
LeftUpLeg  0.919617 6.33701 5.06017
LeftLeg  1.06596 11.8231 -4.03099
LeftFoot  -1.78215 0.104221 -1.0996
LeftToes  4.18335e-011 1.59304e-011 3.38507e-012
636
root  3.73576 41.0444 -1.69924 178.495 -85.89 -178.217
RightUpLeg  -0.478585 -7.75688 -5.87931
RightLeg  1.36365 -2.27932 3.28411
RightFoot  0.112128 -0.17084 1.75658
RightToes  -4.65663e-010 0 -3.6325e-017
Spine  -7.53341 0.786716 3.65156
Spine1  7.84294 1.37151 -3.71875
HEad  3.00745 8.94467 0.166727
LeftShoulder1  3.43417 -8.98733 -21.084
LeftArm  -4.22438 -18.3502 7.63356
LeftForeArm  170.375 -39.9431 -171.412
LeftHand  -0.244104 0.0205437 5.32207
RightShoulder  2.28586 7.385 14.1264
RightArm  3.73287 28.1237 3.25173
RightForeArm  156.64 45.9322 168.612
RightHand  -0.108784 -11.0448 0.942333
LeftUpLeg  0.919748 6.33347 5.04869
LeftLeg  1.05568 11.8193 -4.04185
LeftFoot  -1.76525 0.104115 -1.088
LeftToes  4.18335e-011 1.59304e-011 3.38507e-012
637
root  3.74113 41.0443 -1.69693 178.613 -85.8959 -178.342
RightUpLeg  -0.483978 -7.76547 -5.8914
RightLeg  1.37518 -2.27871 3.28167
RightFoot  0.110669 -0.171976 1.76629
RightToes  -4.65663e-010 0 -3.6325e-017
Spine  -7.47701 0.770847 3.6795
Spine1  7.79073 1.35534 -3.72441
HEad  3.04367 8.9186 0.108138
LeftShoulder1  3.42019 -8.96002 -21.0286
LeftArm  -4.34246 -18.3469 7.63095
LeftForeArm  170.215 -40.0208 -171.38
LeftHand  -0.244104 0.0205437 5.32207
RightShoulder  2.26436 7.34453 13.9947
RightArm  3.71938 28.1715 3.28628
RightForeArm  156.839 46.0145 168.595
RightHand  -0.112688 -10.9987 1.02863
LeftUpLeg  0.924521 6.32707 5.03665
LeftLeg  1.0419 11.8197 -4.04863
LeftFoot  -1.75431 0.103839 -1.07379
LeftToes  4.18335e-011 1.59304e-011 3.38507e-012
